<svg xmlns="http://www.w3.org/2000/svg" width="108" height="109" viewBox="0 0 108 109" fill="none">
  <path d="M16.9087 98.8873H91.0912C96.6937 98.8873 101.25 94.331 101.25 88.7285V68.4785C101.25 64.766 98.2462 61.7285 94.5 61.7285H13.5C9.7875 61.7285 6.75 64.7323 6.75 68.4785V88.7285C6.75 94.3648 11.3063 98.8873 16.9087 98.8873Z" fill="#FFB02E"/>
  <path d="M94.5 58.3877H13.5C9.7875 58.3877 6.75 61.3914 6.75 65.1377V71.8877H101.216V65.1377C101.216 61.4252 98.2125 58.3877 94.5 58.3877Z" fill="#26EAFC"/>
  <path d="M81.8434 24.435L24.0297 82.2487C23.3547 82.9237 23.3547 84.0037 24.0297 84.6787C24.7047 85.3537 25.7847 85.3537 26.4597 84.6787L84.2734 26.865C84.9484 26.19 84.9484 25.11 84.2734 24.435C83.5984 23.76 82.5184 23.76 81.8434 24.435Z" fill="#7D4533"/>
  <path d="M77.0183 85.0835C79.5833 87.6486 83.5995 87.8511 85.5233 85.3535C98.6858 68.141 97.302 43.301 81.4395 27.4385C65.577 11.576 40.6695 10.1585 23.457 23.321C20.9595 25.211 21.162 29.2273 23.727 31.7923L26.292 34.3573L64.0245 44.7523L74.4195 82.4848L77.0183 85.0835Z" fill="#F8312F"/>
  <path d="M74.3848 82.4852C91.5298 65.3402 94.6348 40.7027 81.3373 27.4052C68.0398 14.1077 43.436 17.2127 26.291 34.3577L74.3848 82.4852Z" fill="#F4F4F4"/>
  <path d="M62.3366 70.4028C79.4816 53.2578 87.9866 33.9866 81.3379 27.3716C74.6891 20.7566 55.4516 29.2616 38.3066 46.4066L62.3366 70.4028Z" fill="#F8312F"/>
</svg>