<svg xmlns="http://www.w3.org/2000/svg" width="34" height="33" viewBox="0 0 34 33" fill="none">
  <path fill-rule="evenodd" clip-rule="evenodd" d="M10.3885 7.55556C11.3905 7.55556 12.3513 7.15754 13.0598 6.44907C13.7683 5.7406 14.1663 4.77971 14.1663 3.77778C14.1663 2.77585 13.7683 1.81496 13.0598 1.10649C12.3513 0.398015 11.3905 0 10.3885 0C9.3866 0 8.4257 0.398015 7.71723 1.10649C7.00876 1.81496 6.61075 2.77585 6.61075 3.77778C6.61075 4.77971 7.00876 5.7406 7.71723 6.44907C8.4257 7.15754 9.3866 7.55556 10.3885 7.55556ZM10.3885 5.66667C10.8895 5.66667 11.3699 5.46766 11.7242 5.11342C12.0784 4.75919 12.2774 4.27874 12.2774 3.77778C12.2774 3.27681 12.0784 2.79637 11.7242 2.44213C11.3699 2.0879 10.8895 1.88889 10.3885 1.88889C9.88756 1.88889 9.40712 2.0879 9.05288 2.44213C8.69864 2.79637 8.49964 3.27681 8.49964 3.77778C8.49964 4.27874 8.69864 4.75919 9.05288 5.11342C9.40712 5.46766 9.88756 5.66667 10.3885 5.66667Z" fill="black"/>
  <path d="M14.167 29.2778V25.4339L16.0558 28.1322V29.2778C16.0562 29.8866 15.8604 30.4793 15.4976 30.9681C15.1347 31.457 14.624 31.8159 14.0412 31.9919C13.4584 32.1678 12.8344 32.1513 12.2616 31.9448C11.6889 31.7383 11.1979 31.3529 10.8614 30.8456C10.5252 31.3535 10.0343 31.7396 9.46137 31.9465C8.88845 32.1534 8.26409 32.1701 7.68093 31.9941C7.09778 31.8181 6.58691 31.4588 6.22411 30.9695C5.86132 30.4801 5.66593 29.8869 5.66695 29.2778V18.5508C5.19668 18.8039 4.66446 18.9189 4.13163 18.8826C3.59881 18.8464 3.08709 18.6602 2.65548 18.3457C2.22387 18.0312 1.88994 17.601 1.6922 17.105C1.49445 16.6089 1.44094 16.067 1.53784 15.5418C1.75884 14.3452 1.98173 13.2997 2.26412 12.4421C2.54084 11.5968 2.96301 10.6467 3.75162 9.88456C4.61295 9.05439 5.60273 8.73611 6.4499 8.60672C7.14784 8.49906 7.92606 8.5 8.56828 8.5H8.60417L11.2108 10.3889H8.60417C7.91945 10.3889 7.27723 10.3908 6.73512 10.4739C6.13067 10.5664 5.55456 10.7714 5.06345 11.2446C4.5969 11.6951 4.29656 12.3071 4.05856 13.0314C3.81962 13.7596 3.61468 14.6984 3.39556 15.8837C3.3501 16.13 3.40436 16.3843 3.54641 16.5907C3.68846 16.797 3.90666 16.9385 4.15301 16.9839C4.39936 17.0294 4.65368 16.9751 4.86002 16.8331C5.06636 16.691 5.20782 16.4728 5.25329 16.2265C5.41384 15.3557 5.5574 14.6776 5.69906 14.1459L7.55584 14.3886V29.2778C7.55323 29.5256 7.64809 29.7644 7.81999 29.9429C7.99188 30.1214 8.22703 30.2251 8.47473 30.2318C8.72243 30.2385 8.96284 30.1476 9.14412 29.9787C9.32539 29.8097 9.43302 29.5763 9.44379 29.3288L9.95284 19.8333H11.7709L12.2781 29.3288C12.2814 29.4528 12.3092 29.575 12.3597 29.6883C12.4103 29.8016 12.4826 29.9038 12.5727 29.9891C12.6628 30.0745 12.7688 30.1412 12.8846 30.1856C13.0005 30.23 13.124 30.2511 13.248 30.2477C13.372 30.2444 13.4942 30.2166 13.6075 30.1661C13.7208 30.1155 13.823 30.0431 13.9084 29.9531C13.9937 29.863 14.0604 29.757 14.1048 29.6411C14.1492 29.5253 14.1703 29.4018 14.167 29.2778Z" fill="black"/>
  <path d="M11.2106 10.3889H12.3127L12.3193 10.3898H12.3259C13.2647 10.4087 14.1081 10.7336 14.8117 11.2653L15.8062 9.63806C14.7783 8.89846 13.5441 8.50038 12.2778 8.5H8.60389L11.2106 10.3889ZM2.36111 18.8889C1.73491 18.8889 1.13435 19.1376 0.691553 19.5804C0.248759 20.0232 0 20.6238 0 21.25V22.0084C0 22.2589 0.0995039 22.4991 0.276622 22.6762C0.453739 22.8533 0.693962 22.9528 0.944444 22.9528C1.19493 22.9528 1.43515 22.8533 1.61227 22.6762C1.78938 22.4991 1.88889 22.2589 1.88889 22.0084V21.25C1.88889 21.1248 1.93864 21.0046 2.0272 20.9161C2.11576 20.8275 2.23587 20.7778 2.36111 20.7778C2.48635 20.7778 2.60646 20.8275 2.69502 20.9161C2.78358 21.0046 2.83333 21.1248 2.83333 21.25V30.2222C2.83333 30.4727 2.93284 30.7129 3.10995 30.89C3.28707 31.0672 3.5273 31.1667 3.77778 31.1667C4.02826 31.1667 4.26848 31.0672 4.4456 30.89C4.62272 30.7129 4.72222 30.4727 4.72222 30.2222V21.25C4.72222 20.6238 4.47346 20.0232 4.03067 19.5804C3.58787 19.1376 2.98732 18.8889 2.36111 18.8889ZM29.2778 21.25C29.2778 20.6238 29.5265 20.0232 29.9693 19.5804C30.4121 19.1376 31.0127 18.8889 31.6389 18.8889C32.2651 18.8889 32.8657 19.1376 33.3084 19.5804C33.7512 20.0232 34 20.6238 34 21.25V30.2222C34 30.4727 33.9005 30.7129 33.7234 30.89C33.5463 31.0672 33.306 31.1667 33.0556 31.1667C32.8051 31.1667 32.5648 31.0672 32.3877 30.89C32.2106 30.7129 32.1111 30.4727 32.1111 30.2222V21.25C32.1111 21.1248 32.0614 21.0046 31.9728 20.9161C31.8842 20.8275 31.7641 20.7778 31.6389 20.7778C31.5136 20.7778 31.3935 20.8275 31.305 20.9161C31.2164 21.0046 31.1667 21.1248 31.1667 21.25V22.0084C31.1667 22.2589 31.0672 22.4991 30.89 22.6762C30.7129 22.8533 30.4727 22.9528 30.2222 22.9528C29.9717 22.9528 29.7315 22.8533 29.5544 22.6762C29.3773 22.4991 29.2778 22.2589 29.2778 22.0084V21.25Z" fill="black"/>
  <path fill-rule="evenodd" clip-rule="evenodd" d="M22.6669 7.14944C24.7532 7.14944 26.4447 5.54956 26.4447 3.57472C26.4447 1.60083 24.7532 0 22.6669 0C20.5806 0 18.8891 1.60083 18.8891 3.57472C18.8891 5.54861 20.5797 7.15039 22.6669 7.15039M22.6669 5.3635C23.7096 5.3635 24.5558 4.56356 24.5558 3.57567C24.5558 2.58872 23.7096 1.78878 22.6669 1.78878C21.6242 1.78878 20.778 2.58872 20.778 3.57567C20.778 4.56356 21.6233 5.3635 22.6669 5.3635ZM24.0637 8.93728C24.4699 8.93728 25.1782 8.97978 25.9215 9.33394C27.1776 9.93272 27.8954 10.9131 28.3213 11.7801L28.3997 11.9387C28.548 12.2391 28.5886 12.3212 28.6103 12.4081C28.6179 12.4412 28.6235 12.4742 28.6301 12.5214C28.6433 12.6036 28.6632 12.7273 28.7161 12.9616C28.8823 13.6859 28.8861 13.7048 28.9805 14.1629C29.0702 14.6002 29.2469 15.4577 29.7455 17.8066C30.0534 19.2582 29.0589 20.672 27.5251 20.9629C27.2796 21.0101 27.034 21.0252 26.796 21.0111L27.7272 25.1099C27.868 25.8778 27.459 26.7155 26.5845 27.0111C25.7269 27.3001 24.1733 27.7062 22.1947 27.7062C20.2151 27.7062 18.6625 27.3001 17.8049 27.0111C17.4161 26.8869 17.0857 26.6256 16.8755 26.2758C16.6652 25.9259 16.5894 25.5116 16.6621 25.1099L17.1721 22.3399C16.928 22.3534 16.6832 22.3372 16.443 22.2917C14.9083 21.9999 13.9147 20.587 14.2226 19.1344C14.7204 16.7866 14.897 15.9299 14.9876 15.4917C15.0821 15.0337 15.0859 15.0138 15.2511 14.2894C15.4259 13.5263 15.6601 12.6083 16.0681 11.7801C16.4931 10.914 17.2109 9.93272 18.4679 9.33394C19.2112 8.97978 19.9195 8.93728 20.3256 8.93728H24.0637ZM24.0637 10.7251H20.3247C20.0565 10.7251 19.6844 10.7553 19.316 10.931C18.5671 11.288 18.0977 11.8868 17.7794 12.5347C17.4677 13.1684 17.2675 13.9173 17.0966 14.6672C16.9332 15.3793 16.9313 15.3907 16.8425 15.8213L16.8406 15.8327C16.5889 17.0515 16.3332 18.2695 16.0737 19.4867C15.9708 19.9703 16.3023 20.4416 16.8142 20.5388C17.0503 20.5842 17.2855 20.5407 17.48 20.4321L18.6001 14.6011L20.4588 14.9213L19.8666 18.0002L19.8893 17.9756L18.5331 25.3583C19.2631 25.5963 20.557 25.9184 22.1937 25.9184C23.8305 25.9184 25.1244 25.5973 25.8544 25.3583L24.4972 17.9728L24.5171 17.9832L23.9287 14.9213L25.7874 14.6011L26.5146 19.1193C26.7035 19.2166 26.9264 19.2534 27.1521 19.2109C27.663 19.1137 27.9945 18.6424 27.8916 18.1588C27.3929 15.8072 27.2163 14.9458 27.1247 14.5038L27.1228 14.4944C27.034 14.0628 27.0321 14.0514 26.8697 13.3393C26.7998 13.0333 26.7941 12.9483 26.7932 12.9124C26.7932 12.903 26.7926 12.8958 26.7913 12.8907C26.7885 12.8794 26.7828 12.8699 26.7667 12.8416C26.7441 12.7991 26.6987 12.7169 26.6081 12.5337C26.2898 11.8868 25.8204 11.2871 25.0715 10.9301C24.7541 10.7883 24.4094 10.7183 24.0619 10.7251" fill="black"/>
  <path d="M17.9441 30.7693V28.599C19.1766 28.7595 20.3118 28.8596 21.4215 28.8983L20.7198 31.149C20.5196 31.7883 19.8547 32.1916 19.1577 32.0962C18.4607 32.0018 17.9441 31.4351 17.9441 30.7693ZM23.6769 31.1763L22.9166 28.9153C24.0956 28.8968 25.2729 28.8187 26.4441 28.6811V30.7702C26.4441 31.4313 25.9341 31.9933 25.2446 32.0944C24.5552 32.1964 23.8894 31.8063 23.6769 31.1763Z" fill="black"/>
</svg>