<svg xmlns="http://www.w3.org/2000/svg" width="107" height="108" viewBox="0 0 107 108" fill="none">
  <path d="M90.2478 101.209H16.7522C11.2015 101.209 6.6875 96.6984 6.6875 91.152V64.4226C6.6875 60.7473 9.66344 57.7402 13.375 57.7402H93.625C97.3031 57.7402 100.312 60.7139 100.312 64.4226V91.152C100.279 96.6984 95.7984 101.209 90.2478 101.209Z" fill="#608842"/>
  <rect x="73.582" y="50.5498" width="10.0282" height="13.861" rx="0.674548" fill="#8C5543"/>
  <path d="M88.4907 17.0671C88.171 11.8053 83.8024 7.63672 78.4601 7.63672C72.9682 7.63672 68.5052 12.0421 68.4122 17.5118C68.3561 17.9136 68.2521 18.2863 67.8799 18.4665C63.2987 19.402 59.852 23.4547 59.852 28.3124C59.852 29.5773 60.0857 30.7875 60.5122 31.9024C60.5175 31.935 60.5283 31.9713 60.5454 32.0118C60.7479 32.4905 60.6137 33.0655 60.2822 33.4712C58.1749 35.3133 56.8438 38.0212 56.8438 41.0401C56.8438 46.5344 61.253 50.9988 66.726 51.0881L66.8407 51.0893C66.8581 51.0894 66.8756 51.0894 66.8931 51.0894C66.9106 51.0894 66.9281 51.0894 66.9455 51.0893H90.4032C90.4207 51.0894 90.4382 51.0894 90.4557 51.0894C90.4732 51.0894 90.4906 51.0894 90.5081 51.0893H90.5341C96.0481 51.0471 100.505 46.564 100.505 41.0401C100.505 37.9486 99.1091 35.1832 96.9132 33.3398C96.3462 32.7496 96.4834 31.9562 96.6487 31.3801C96.6763 31.2942 96.7026 31.2077 96.7279 31.1208L96.7431 31.0727C96.7738 31.0115 96.7892 30.9509 96.7914 30.892C97.0094 30.0688 97.1256 29.2042 97.1256 28.3124C97.1256 23.5671 93.8365 19.5899 89.4136 18.5363C88.8292 18.3448 88.5289 17.5258 88.4907 17.0671Z" fill="#96C34A"/>
  <circle cx="26.1081" cy="25.3844" r="4.41276" fill="#D3D3D3"/>
  <path d="M27.6874 22.4357C26.5876 24.1862 25.8919 24.2763 24.6127 23.7827C23.9169 23.6106 23.2884 23.2664 21.6949 23.2664C17.9786 23.2664 14.7598 26.4086 14.7598 30.6505C14.7598 34.8924 17.6325 37.8102 23.2884 37.8102H36.7773C42.321 37.8102 46.2711 33.19 46.2711 27.3064C46.2711 21.4227 40.8621 17.7002 36.0815 17.7002C31.301 17.7002 28.7872 20.6853 27.6874 22.4357Z" fill="#E6E6E6"/>
  <path d="M15.2179 82.641C13.4283 87.169 16.0588 87.9023 18.0641 87.9023H86.2622C88.7017 87.9023 89.7664 85.918 88.5966 82.9349C87.967 81.3296 78.0123 56.5073 73.3956 44.3096H32.0021C30.3495 44.3096 29.956 45.4506 29.2871 47.0639C28.6182 48.6771 17.0076 78.113 15.2179 82.641Z" fill="#F9C23C"/>
  <path d="M43.5937 81.1054C42.0654 77.4051 35.8515 61.9341 32.9355 54.6611V87.9093H50.2299C46.4761 87.9093 45.5041 85.7307 43.5937 81.1054Z" fill="#433B6B"/>
  <path d="M32.9701 54.6673C32.1514 52.6489 30.4654 48.4759 30.2709 47.9312C30.253 47.8813 30.2343 47.8297 30.215 47.7765C29.9709 47.1046 29.6394 46.1921 30.0025 45.5022V45.4883C29.7792 45.8726 29.5884 46.3353 29.3751 46.8526C29.3462 46.9226 29.3169 46.9936 29.2871 47.0655C28.7594 48.3382 21.4212 66.9286 17.4683 76.9427C16.4109 79.6217 15.5956 81.6869 15.2179 82.6426C13.4283 87.1706 16.0588 87.9039 18.0641 87.9039H31.9028V58.1849L32.9701 54.6673Z" fill="#ED9200"/>
  <path d="M33.0184 87.8972V54.6377C29.0203 65.7076 21.5865 85.7081 21.2834 86.5127C20.9804 87.3173 20.5476 87.771 20.3691 87.8972H33.0184Z" fill="#FF6723"/>
  <path d="M54.7486 54.416C51.9866 54.416 51.1001 56.0136 51.9604 58.3679C52.2622 59.4093 53.1005 62.0404 53.9336 64.2861C54.975 67.0932 56.4843 67.812 58.9744 67.812H64.6792C67.4411 67.812 67.8334 65.8707 67.2448 64.2861C66.6562 62.7014 65.6149 59.849 64.7999 57.721C63.9849 55.593 62.4003 54.416 59.9101 54.416H54.7486Z" fill="#FF822D"/>
</svg>