<svg xmlns="http://www.w3.org/2000/svg" width="26" height="38" viewBox="0 0 26 38" fill="none">
  <path fill-rule="evenodd" clip-rule="evenodd" d="M13 2C6.925 2 2 6.925 2 13H0C0 5.82 5.82 0 13 0C20.18 0 26 5.82 26 13C26 17.501 23.712 21.467 20.24 23.8C17.87 25.39 16 27.506 16 29.91V30C16 32.1217 15.1571 34.1566 13.6569 35.6569C12.1566 37.1571 10.1217 38 8 38C5.87827 38 3.84344 37.1571 2.34315 35.6569C0.842854 34.1566 0 32.1217 0 30V29.142C0.0001006 26.6118 0.87244 24.159 2.47 22.197L1.843 21.571C1.67097 21.3987 1.56772 21.1695 1.55263 20.9265C1.53753 20.6835 1.61162 20.4433 1.761 20.251L6.177 14.572C5.84013 13.1099 5.98196 11.5783 6.58158 10.2029C7.1812 8.82752 8.20687 7.6812 9.50738 6.93295C10.8079 6.1847 12.3144 5.87411 13.8048 6.04698C15.2952 6.21985 16.6906 6.86703 17.7853 7.8931C18.88 8.91917 19.6161 10.2698 19.885 11.7459C20.1538 13.222 19.9413 14.7455 19.2787 16.0917C18.6161 17.4378 17.5385 18.5355 16.2048 19.2228C14.8711 19.9101 13.3518 20.1506 11.871 19.909L5.993 24.482C5.80064 24.6317 5.56025 24.7059 5.31699 24.6908C5.07374 24.6757 4.84438 24.5723 4.672 24.4L3.892 23.62C2.66516 25.1996 1.99945 27.1429 2 29.143V30C2 31.5913 2.63214 33.1174 3.75736 34.2426C4.88258 35.3679 6.4087 36 8 36C9.5913 36 11.1174 35.3679 12.2426 34.2426C13.3679 33.1174 14 31.5913 14 30V29.911C14 26.454 16.628 23.815 19.124 22.139C20.6254 21.1339 21.8557 19.7741 22.7062 18.18C23.5567 16.5859 24.0011 14.8068 24 13C24 6.925 19.075 2 13 2ZM9.617 19.13C8.57011 18.552 7.68875 17.7154 7.057 16.7L3.882 20.781L5.462 22.361L9.617 19.13ZM13 8C11.6739 8 10.4021 8.52678 9.46447 9.46447C8.52678 10.4021 8 11.6739 8 13C8 14.3261 8.52678 15.5979 9.46447 16.5355C10.4021 17.4732 11.6739 18 13 18C14.3261 18 15.5979 17.4732 16.5355 16.5355C17.4732 15.5979 18 14.3261 18 13C18 11.6739 17.4732 10.4021 16.5355 9.46447C15.5979 8.52678 14.3261 8 13 8Z" fill="black"/>
</svg>