<svg xmlns="http://www.w3.org/2000/svg" width="14" height="18" viewBox="0 0 14 18" fill="none">
  <path d="M6.99957 3.97717C6.38698 3.97717 5.78815 4.15547 5.27881 4.48951C4.76946 4.82356 4.37248 5.29835 4.13805 5.85385C3.90363 6.40935 3.84229 7.0206 3.9618 7.61031C4.08131 8.20003 4.3763 8.74171 4.80946 9.16687C5.24262 9.59203 5.7945 9.88157 6.39532 9.99887C6.99613 10.1162 7.61889 10.056 8.18485 9.82587C8.7508 9.59578 9.23453 9.20613 9.57486 8.70619C9.9152 8.20626 10.0968 7.61849 10.0968 7.01723C10.0968 6.21095 9.77053 5.4377 9.18968 4.86758C8.60882 4.29746 7.82102 3.97717 6.99957 3.97717ZM6.99957 8.84126C6.63202 8.84126 6.27272 8.73428 5.96711 8.53386C5.6615 8.33343 5.42331 8.04855 5.28266 7.71525C5.142 7.38196 5.1052 7.0152 5.17691 6.66138C5.24861 6.30755 5.4256 5.98254 5.6855 5.72744C5.9454 5.47234 6.27653 5.29862 6.63702 5.22824C6.99751 5.15786 7.37116 5.19398 7.71073 5.33204C8.05031 5.4701 8.34054 5.70389 8.54474 6.00385C8.74895 6.30381 8.85794 6.65647 8.85794 7.01723C8.85794 7.50099 8.66214 7.96494 8.31363 8.30701C7.96512 8.64909 7.49244 8.84126 6.99957 8.84126ZM6.99957 0.329102C5.19301 0.331113 3.46102 1.0364 2.18359 2.29023C0.906158 3.54406 0.187596 5.24404 0.185547 7.01723C0.185547 9.40367 1.30909 11.933 3.43769 14.3324C4.39415 15.4166 5.47064 16.3929 6.64725 17.2432C6.75141 17.3148 6.87549 17.3533 7.00266 17.3533C7.12983 17.3533 7.25392 17.3148 7.35808 17.2432C8.53252 16.3925 9.60692 15.4162 10.5614 14.3324C12.687 11.933 13.8136 9.40367 13.8136 7.01723C13.8115 5.24404 13.093 3.54406 11.8155 2.29023C10.5381 1.0364 8.80613 0.331113 6.99957 0.329102ZM6.99957 15.9854C5.71961 14.9974 1.42446 11.3683 1.42446 7.01723C1.42446 5.56594 2.01184 4.17408 3.05737 3.14787C4.10291 2.12165 5.52096 1.54512 6.99957 1.54512C8.47818 1.54512 9.89623 2.12165 10.9418 3.14787C11.9873 4.17408 12.5747 5.56594 12.5747 7.01723C12.5747 11.3668 8.27952 14.9974 6.99957 15.9854Z" fill="#202020"/>
</svg>