<svg xmlns="http://www.w3.org/2000/svg" width="37" height="37" viewBox="0 0 37 37" fill="none">
  <g clip-path="url(#clip0_647_4923)">
    <path d="M18.8342 0.0712891C8.89317 0.0712891 0.834229 8.13023 0.834229 18.0713C0.834229 28.0129 8.89317 36.0713 18.8342 36.0713C28.7759 36.0713 36.8342 28.0129 36.8342 18.0713C36.8342 8.13023 28.7759 0.0712891 18.8342 0.0712891ZM18.8342 33.8567C10.1498 33.8567 3.08423 26.7557 3.08423 18.0712C3.08423 9.38678 10.1498 2.32122 18.8342 2.32122C27.5187 2.32122 34.5842 9.38682 34.5842 18.0712C34.5842 26.7556 27.5187 33.8567 18.8342 33.8567ZM26.7092 16.9463H19.9592V10.1963C19.9592 9.57529 19.4552 9.07129 18.8342 9.07129C18.2132 9.07129 17.7092 9.57529 17.7092 10.1963V16.9463H10.9592C10.3382 16.9463 9.83423 17.4503 9.83423 18.0713C9.83423 18.6923 10.3382 19.1963 10.9592 19.1963H17.7092V25.9463C17.7092 26.5673 18.2132 27.0713 18.8342 27.0713C19.4552 27.0713 19.9592 26.5673 19.9592 25.9463V19.1963H26.7092C27.3302 19.1963 27.8342 18.6923 27.8342 18.0713C27.8342 17.4503 27.3302 16.9463 26.7092 16.9463Z" fill="#949494"/>
  </g>
  <defs>
    <clipPath id="clip0_647_4923">
      <rect width="36" height="36" fill="white" transform="translate(0.834229 0.0712891)"/>
    </clipPath>
  </defs>
</svg>