<svg xmlns="http://www.w3.org/2000/svg" width="34" height="32" viewBox="0 0 34 32" fill="none">
  <path d="M30.4235 20.1223L30.3204 20.509L30.675 20.6943C31.5021 21.1266 32.1994 21.7711 32.6954 22.5616C33.1913 23.3522 33.4681 24.2604 33.4974 25.1932C33.5267 26.126 33.3074 27.0499 32.862 27.87C32.4166 28.6901 31.7611 29.377 30.9628 29.8603C30.1644 30.3437 29.2519 30.606 28.3187 30.6204C27.3856 30.6349 26.4654 30.4009 25.6525 29.9426C24.8395 29.4842 24.1631 28.8179 23.6925 28.0119C23.222 27.2061 22.9743 26.2897 22.9746 25.3566C22.9748 25.178 22.9836 25.0024 23.0009 24.8294L23.0559 24.2797H22.5034H14.9542H14.401L14.4568 24.83C14.4743 25.0027 14.4831 25.1779 14.4831 25.3559C14.4831 26.3388 14.2078 27.3021 13.6885 28.1366C13.1692 28.9711 12.4266 29.6435 11.5447 30.0777C10.6629 30.5118 9.67711 30.6903 8.69904 30.5929C7.72097 30.4956 6.78972 30.1262 6.01076 29.5268C5.23181 28.9274 4.6363 28.1217 4.29169 27.2012C3.94708 26.2807 3.86714 25.2821 4.06093 24.3185C4.25472 23.3549 4.7145 22.4648 5.38817 21.7491C6.06185 21.0333 6.9225 20.5206 7.87262 20.2689L8.33877 20.1454L8.23222 19.6751L5.31665 6.80479L5.22841 6.41525H4.82901H0.5V5.11017H4.82799C5.24021 5.11198 5.63957 5.25397 5.96042 5.51282C6.28151 5.77186 6.50485 6.1325 6.59367 6.53537L6.59366 6.53538L6.5943 6.5382L7.87967 12.2122L7.96791 12.6017H8.36731H16.7119H17.2119V12.1017V0.5H19.0169C25.6702 0.5 31.1973 5.62129 31.7712 12.1235V15.0688L30.4235 20.1223ZM19.0169 1.80508H18.5169V2.30508V12.1017V12.6017H19.0169H29.9059H30.4612L30.4031 12.0494C29.7991 6.30007 24.924 1.80508 19.0169 1.80508ZM9.22034 29.3136H9.22091C10.27 29.3124 11.2758 28.8951 12.0176 28.1532C12.7595 27.4114 13.1768 26.4056 13.178 25.3565V25.3559C13.178 24.5732 12.9459 23.808 12.511 23.1572C12.0761 22.5064 11.458 21.9991 10.7349 21.6996C10.0117 21.4 9.21595 21.3216 8.44825 21.4743C7.68054 21.6271 6.97536 22.004 6.42187 22.5575C5.86839 23.111 5.49146 23.8161 5.33876 24.5838C5.18605 25.3515 5.26443 26.1473 5.56397 26.8704C5.86351 27.5936 6.37077 28.2117 7.0216 28.6466C7.67243 29.0814 8.43759 29.3136 9.22034 29.3136ZM23.2499 22.9746H23.5385L23.6828 22.7246C24.1446 21.9251 24.8086 21.2611 25.608 20.7992C26.4071 20.3375 27.3136 20.094 28.2365 20.093C28.3745 20.0936 28.5126 20.0995 28.6502 20.1108L29.0666 20.145L29.1742 19.7414L30.4492 14.9606L30.4661 14.8973V14.8318V14.4068V13.9068H29.9661H8.88956H8.26362L8.40192 14.5173L9.59141 19.7679L9.66673 20.1004L10.0037 20.1518C10.7849 20.2708 11.5294 20.5639 12.1822 21.0092C12.8349 21.4546 13.3792 22.041 13.775 22.725L13.9194 22.9746H14.2077H23.2499ZM28.2373 29.3136H28.2379C29.287 29.3124 30.2928 28.8951 31.0346 28.1532C31.7764 27.4114 32.1937 26.4056 32.1949 25.3565V25.3559C32.1949 24.5732 31.9628 23.808 31.5279 23.1572C31.0931 22.5064 30.475 21.9991 29.7518 21.6996C29.0286 21.4 28.2329 21.3216 27.4652 21.4743C26.6975 21.6271 25.9923 22.004 25.4388 22.5575C24.8853 23.111 24.5084 23.8161 24.3557 24.5838C24.203 25.3515 24.2814 26.1473 24.5809 26.8704C24.8805 27.5936 25.3877 28.2117 26.0385 28.6466C26.6894 29.0814 27.4545 29.3136 28.2373 29.3136Z" fill="black" stroke="black"/>
</svg>