<svg xmlns="http://www.w3.org/2000/svg" width="44" height="44" viewBox="0 0 44 44" fill="none">
  <path d="M26.1763 26.1764C27.2545 25.0628 27.8518 23.5699 27.8392 22.0199C27.8267 20.4698 27.2054 18.9868 26.1093 17.8908C25.0132 16.7947 23.5303 16.1734 21.9802 16.1608C20.4302 16.1483 18.9373 16.7456 17.8237 17.8238M12.0707 12.0708L31.9293 31.9294M7.70734 16.8741L26.026 35.1928M0.488892 22.0001C2.82822 22.0001 4.58334 23.8334 6.41667 25.6668L11.1943 31.0696C12.5798 32.5471 14.2535 33.7247 16.1121 34.5298C17.9706 35.3348 19.9746 35.7502 22 35.7502C24.0254 35.7502 26.0294 35.3348 27.8879 34.5298C29.7465 33.7247 31.4202 32.5471 32.8057 31.0696L37.5833 25.6668C39.4167 23.8334 40.6829 22.0001 43.0222 22.0001C40.6829 22.0001 39.4167 20.1668 37.5833 18.3334L32.8057 12.9306C31.4202 11.4531 29.7465 10.2755 27.8879 9.47042C26.0294 8.66536 24.0254 8.25 22 8.25C19.9746 8.25 17.9706 8.66536 16.1121 9.47042C14.2535 10.2755 12.5798 11.4531 11.1943 12.9306L6.41667 18.3334C4.58334 20.1668 2.82822 22.0001 0.488892 22.0001Z" stroke="black" stroke-width="1.875"/>
</svg>