<svg xmlns="http://www.w3.org/2000/svg" width="28" height="34" viewBox="0 0 28 34" fill="none">
  <path fill-rule="evenodd" clip-rule="evenodd" d="M17.0423 8.05233C18.174 8.05233 19.2593 7.62815 20.0595 6.8731C20.8598 6.11804 21.3093 5.09397 21.3093 4.02617C21.3093 2.95836 20.8598 1.93429 20.0595 1.17924C19.2593 0.424184 18.174 0 17.0423 0C15.9106 0 14.8252 0.424184 14.025 1.17924C13.2248 1.93429 12.7752 2.95836 12.7752 4.02617C12.7752 5.09397 13.2248 6.11804 14.025 6.8731C14.8252 7.62815 15.9106 8.05233 17.0423 8.05233ZM17.0423 6.16344C17.643 6.16344 18.2192 5.93827 18.644 5.53745C19.0688 5.13663 19.3074 4.59301 19.3074 4.02617C19.3074 3.45932 19.0688 2.9157 18.644 2.51488C18.2192 2.11407 17.643 1.88889 17.0423 1.88889C16.4415 1.88889 15.8654 2.11407 15.4406 2.51488C15.0158 2.9157 14.7771 3.45932 14.7771 4.02617C14.7771 4.59301 15.0158 5.13663 15.4406 5.53745C15.8654 5.93827 16.4415 6.16344 17.0423 6.16344ZM13.5399 7.17306C12.3618 7.0125 11.3308 7.50833 10.5841 8.12506C9.85405 8.73953 9.28554 9.50584 8.92352 10.3634C8.74735 10.7865 8.53014 11.6667 8.31794 12.6782C8.24187 13.0428 8.16379 13.4366 8.08672 13.8493V10.4881L4.84162 8.19211L3.64047 9.70322L6.08481 11.4325V16.6968C4.2944 17.3461 2.75456 18.4921 1.66831 19.9837C0.582056 21.4753 0.000390934 23.2425 0 25.0523C0 27.4254 0.999104 29.7013 2.77752 31.3793C4.55594 33.0573 6.96799 34 9.48305 34C14.3847 34 18.4176 30.4914 18.914 25.9911L18.9701 25.9864L19.1303 26.248C19.4205 26.7259 19.8199 27.3794 20.2563 28.0859C21.1232 29.4884 22.1541 31.1279 22.7557 31.9864C23.6906 33.3181 25.3242 33.3672 26.4292 32.8383C27.0214 32.5619 27.496 32.1032 27.7745 31.5378C28.0648 30.9287 28.0888 30.2156 27.7645 29.5111C27.3401 28.5874 26.3371 26.3661 25.4383 24.3733L24.2572 21.7515L24.0309 21.2509C24.4643 21.2849 24.8077 21.3076 25.0099 21.3161C25.6575 21.3407 26.19 21.0356 26.5423 20.7107C26.9047 20.3773 27.1799 19.9372 27.3241 19.4726C27.4682 19.0098 27.5042 18.4469 27.272 17.9086C27.0278 17.34 26.5333 16.9103 25.8507 16.6855C24.9278 16.3823 23.3032 15.9724 21.9469 15.6466C21.2533 15.4799 20.5587 15.3171 19.863 15.1583C19.1866 13.9656 18.478 12.7894 17.7379 11.6308C17.1043 10.6496 16.4067 9.63711 15.755 8.84661C15.4586 8.47658 15.1305 8.13007 14.7741 7.81056C14.4888 7.565 14.0574 7.24294 13.5389 7.17306M18.911 24.0975L20.0832 24.0172L20.3955 24.5348L20.5216 24.7426C21.0057 25.5417 21.4935 26.3388 21.985 27.1339C22.8578 28.5477 23.8588 30.1391 24.4243 30.9447C24.6575 31.2762 25.0779 31.3669 25.5224 31.1534C25.7068 31.0725 25.8567 30.935 25.9478 30.7634C26.0048 30.6434 26.0298 30.4857 25.9277 30.2628C25.4983 29.3316 24.4924 27.1037 23.5955 25.1128C23.1451 24.1173 22.7237 23.1786 22.4134 22.4901L21.8979 21.3444L21.8959 21.3426L21.8789 21.3246C21.8639 21.3114 21.7768 21.2321 21.5015 21.2321C21.1392 21.2321 20.5836 21.1603 20.0291 21.0753C19.2676 20.9558 18.5088 20.8219 17.7529 20.6739C18.3822 21.7284 18.7763 22.8941 18.911 24.0975ZM14.5048 17.4618L14.1425 16.0263L16.0693 15.5295H16.0723L16.0743 15.5352L16.0823 15.5578C16.1298 15.7006 16.1799 15.8426 16.2325 15.9838C16.3346 16.2671 16.4777 16.6449 16.6459 17.0321C16.815 17.4241 16.9982 17.8047 17.1774 18.1022C17.2681 18.2508 17.3456 18.3622 17.4096 18.4365L17.4557 18.4875C17.4907 18.4988 17.5738 18.5253 17.7259 18.5602C17.9441 18.6122 18.2314 18.6669 18.5757 18.7236C19.2624 18.8369 20.1252 18.9503 21.008 19.0523C22.7447 19.2525 24.4884 19.4008 25.0519 19.4263C25.086 19.4077 25.1171 19.3845 25.144 19.3573C25.2491 19.261 25.3502 19.1071 25.4022 18.9399C25.4543 18.7708 25.4363 18.6632 25.4163 18.6169C25.4082 18.598 25.3792 18.5309 25.191 18.4686C24.3633 18.1957 22.8218 17.8056 21.4515 17.476C20.6877 17.2926 19.9226 17.1141 19.1563 16.9405L19.0091 16.9074L18.5127 16.796L18.3015 16.4126L18.2895 16.3927L18.2554 16.3304L18.1213 16.0914C17.4561 14.9142 16.7575 13.754 16.0263 12.6121C15.4077 11.6526 14.7551 10.7109 14.1745 10.0054C13.9464 9.719 13.694 9.45052 13.4198 9.20267C13.3512 9.14039 13.2764 9.08442 13.1966 9.0355C12.8162 9.00339 12.3728 9.15639 11.9024 9.5455C11.4134 9.96242 11.0314 10.4788 10.7853 11.0557C10.6872 11.2899 10.5 11.9954 10.2808 13.0428C10.0706 14.0602 9.88533 15.082 9.72528 16.1075C11.4186 16.1448 13.0699 16.6127 14.5048 17.4618ZM9.45903 17.9936H9.48205C11.3153 17.9938 13.0846 18.6291 14.4543 19.7788C15.8239 20.9285 16.6985 22.5127 16.9121 24.2307L13.7501 24.4451L13.7301 24.4469H13.7281L13.7081 24.4488L13.607 24.4554C13.0169 24.4841 12.4256 24.4261 11.8543 24.2836C10.8554 24.0304 9.81637 23.4619 9.31389 22.1425C9.28686 22.0707 9.24382 21.8667 9.22681 21.4814C9.21253 21.0358 9.22054 20.5899 9.25083 20.145C9.29087 19.4962 9.36394 18.7614 9.45903 17.9936ZM7.41207 18.2674C7.34201 18.8879 7.28595 19.4877 7.25192 20.0373C7.2177 20.5445 7.20902 21.0528 7.2259 21.5607C7.24591 21.9857 7.29596 22.4277 7.43009 22.7828C8.22085 24.8559 9.91847 25.7484 11.3338 26.1073C12.1815 26.3194 13.0612 26.3935 13.9353 26.3264L16.8761 26.1271C16.5821 27.8795 15.5996 29.4633 14.1242 30.5633C12.6488 31.6632 10.7885 32.1987 8.91359 32.0633C7.03867 31.9278 5.28653 31.1312 4.0058 29.8321C2.72508 28.533 2.00967 26.8266 2.00191 25.0523C2.0025 23.5208 2.53056 22.0309 3.50654 20.8072C4.48252 19.5834 5.85255 18.6921 7.41207 18.2674Z" fill="black"/>
</svg>